#!OML:ASF I:\Actors\actors\Patient Classification 2\Patient 1\Session 1\actor1.ASF
:FULLY-SPECIFIED
:DEGREES
585
root 0.814186 17.6965 5.78177 -2.11351 -31.7728 -2.9712
lowerback 20.6543 2.06626 -6.65456
upperback 6.98952 1.1218 -1.4779
thorax -4.02909 0.447831 1.93652
lowerneck -19.1996 3.07567 4.87084
upperneck 24.2648 1.77645 3.25187
head 11.0867 1.63366 0.629055
rclavicle 1.06549e-013 -6.99722e-014
rhumerus -13.4843 48.7654 -65.0623
rradius 51.9323
rwrist -17.2691
rhand 10.5817 -25.8614
rfingers 7.12502
rthumb 35.6779 -52.2564
lclavicle 1.06549e-013 -6.99722e-014
lhumerus -47.2102 -79.7805 132.129
lradius 76.7739
lwrist 13.9487
lhand 5.25741 -28.7851
lfingers 7.12502
lthumb 30.6155 -1.31105
rfemur 16.7729 -11.1783 12.0446
rtibia -29.7078
rfoot 16.4573 -14.9113
rtoes 24.7859
lfemur 30.9608 9.23108 -18.8588
ltibia -32.7019
lfoot 4.89898 20.9842
ltoes -12.3133
586
root 0.81897 17.6986 5.7518 -1.85588 -31.5494 -3.02602
lowerback 21.0033 2.13828 -6.43718
upperback 7.09801 1.23391 -1.41211
thorax -4.09844 0.501701 1.85253
lowerneck -19.2786 3.15495 4.91914
upperneck 23.9358 1.9236 3.11049
head 10.9811 1.68296 0.588526
rclavicle -1.35174e-014 4.77083e-014
rhumerus -14.2129 49.8473 -67.1238
rradius 52.6739
rwrist -17.6644
rhand 10.1901 -24.9526
rfingers 7.12502
rthumb 35.3066 -51.4365
lclavicle -1.35174e-014 4.77083e-014
lhumerus -49.0062 -80.2006 134.061
lradius 76.8212
lwrist 14.4567
lhand 4.60392 -29.3206
lfingers 7.12502
lthumb 29.9921 -1.73188
rfemur 16.4657 -11.2061 12.1678
rtibia -29.6904
rfoot 16.43 -14.9601
rtoes 24.5122
lfemur 30.7327 9.20037 -18.7957
ltibia -33.0364
lfoot 5.30585 20.8417
ltoes -12.5284
587
root 0.822044 17.7002 5.72026 -1.5351 -31.2747 -3.16093
lowerback 21.4182 2.19169 -6.20085
upperback 7.13808 1.32067 -1.34103
thorax -4.27226 0.547676 1.76685
lowerneck -19.4152 3.19496 4.95349
upperneck 23.7047 1.99105 3.03922
head 10.9226 1.70565 0.56635
rclavicle -4.69132e-014 7.95139e-015
rhumerus -15.0588 50.8455 -69.2531
rradius 53.5856
rwrist -18.3521
rhand 10.3093 -24.4522
rfingers 7.12502
rthumb 35.4196 -50.9092
lclavicle -4.69132e-014 7.95139e-015
lhumerus -51.2199 -80.5328 136.372
lradius 76.8929
lwrist 15.1454
lhand 4.14986 -29.6715
lfingers 7.12502
lthumb 29.5588 -2.00521
rfemur 16.141 -11.2736 12.3808
rtibia -29.6747
rfoot 16.4729 -14.9302
rtoes 24.1269
lfemur 30.4977 9.1682 -18.6395
ltibia -33.4034
lfoot 5.78403 20.6478
ltoes -12.6937
588
root 0.824228 17.7012 5.68812 -1.15698 -30.945 -3.30998
lowerback 21.8249 2.23491 -5.97041
upperback 7.14392 1.39637 -1.25921
thorax -4.47745 0.589628 1.69767
lowerneck -19.2938 3.25949 5.26678
upperneck 23.1639 2.13312 2.60504
head 10.7092 1.73529 0.370005
rclavicle -3.02153e-014 3.81667e-014
rhumerus -15.8082 51.9732 -71.2248
rradius 54.4783
rwrist -18.5427
rhand 10.3945 -23.8111
rfingers 7.12502
rthumb 35.5004 -50.2488
lclavicle -3.02153e-014 3.81667e-014
lhumerus -53.6466 -80.6619 138.936
lradius 76.9021
lwrist 15.4787
lhand 3.78469 -30.0878
lfingers 7.12502
lthumb 29.2101 -2.36042
rfemur 15.7674 -11.3453 12.615
rtibia -29.6434
rfoot 16.4503 -14.9157
rtoes 23.6733
lfemur 30.2278 9.15041 -18.4624
ltibia -33.8226
lfoot 6.24422 20.4196
ltoes -12.4412
589
root 0.826164 17.7009 5.65689 -0.758112 -30.5716 -3.40635
lowerback 22.1295 2.22098 -5.8113
upperback 7.01255 1.39385 -1.15271
thorax -4.77539 0.599111 1.71524
lowerneck -18.743 3.28047 5.16526
upperneck 22.7239 2.25894 2.5722
head 10.4425 1.76914 0.377957
rclavicle 1.18873e-013 -4.29375e-014
rhumerus -16.7461 53.4567 -73.2079
rradius 55.3648
rwrist -18.5335
rhand 10.5297 -23.1867
rfingers 7.12502
rthumb 35.6286 -49.5936
lclavicle 1.18873e-013 -4.29375e-014
lhumerus -56.5912 -80.3523 142.047
lradius 76.8625
lwrist 15.4072
lhand 3.40226 -30.639
lfingers 7.12502
lthumb 28.8449 -2.84862
rfemur 15.3147 -11.4942 12.7977
rtibia -29.5344
rfoot 16.4285 -14.8711
rtoes 23.3041
lfemur 29.8909 9.11579 -18.3506
ltibia -34.2355
lfoot 6.6438 20.2037
ltoes -12.1242
590
root 0.826105 17.7012 5.62466 -0.348858 -30.1587 -3.58025
lowerback 22.3602 2.21396 -5.5922
upperback 7.10436 1.42291 -1.06119
thorax -4.79343 0.611474 1.67896
lowerneck -18.8131 3.33742 5.26821
upperneck 22.3812 2.35073 2.44048
head 10.3351 1.7994 0.324483
rclavicle -6.32135e-014 4.45278e-014
rhumerus -17.09 54.6993 -74.6721
rradius 56.3009
rwrist -18.7375
rhand 10.6794 -22.9112
rfingers 7.12502
rthumb 35.7705 -49.2838
lclavicle -6.32135e-014 4.45278e-014
lhumerus -58.3829 -80.5291 143.965
lradius 76.8886
lwrist 15.3855
lhand 3.03664 -31.0669
lfingers 7.12502
lthumb 28.4956 -3.21752
rfemur 14.9057 -11.6773 13.0514
rtibia -29.4365
rfoot 16.4738 -14.7368
rtoes 22.7931
lfemur 29.5919 9.0601 -18.1509
ltibia -34.6645
lfoot 7.08513 19.9554
ltoes -12.1513
591
root 0.825025 17.7128 5.59206 0.0697881 -29.6922 -3.83609
lowerback 22.6709 2.22204 -5.48142
upperback 7.26579 1.45211 -0.846315
thorax -4.7801 0.619936 1.8367
lowerneck -19.2751 3.36741 5.27277
upperneck 22.0894 2.44965 2.14161
head 10.3192 1.80785 0.236557
rclavicle 7.55382e-015 -2.46493e-014
rhumerus -17.1557 56.0056 -75.7099
rradius 57.3257
rwrist -19.3608
rhand 10.6938 -22.8152
rfingers 7.12502
rthumb 35.7841 -49.1844
lclavicle 7.55382e-015 -2.46493e-014
lhumerus -59.0674 -80.7796 144.968
lradius 76.8828
lwrist 15.5243
lhand 2.69861 -31.3437
lfingers 7.12502
lthumb 28.1725 -3.44064
rfemur 14.5378 -11.7392 13.3767
rtibia -29.3323
rfoot 16.3406 -14.6725
rtoes 22.1821
lfemur 29.2777 8.9597 -17.8613
ltibia -35.0546
lfoot 7.57096 19.7022
ltoes -12.2142
592
root 0.822747 17.7121 5.55734 0.444647 -29.191 -3.99213
lowerback 22.9936 2.19642 -5.4021
upperback 7.36356 1.42614 -0.690891
thorax -4.8367 0.605078 1.96207
lowerneck -19.5161 3.44096 5.24482
upperneck 21.7768 2.61782 1.9033
head 10.2546 1.8508 0.181708
rclavicle 8.74653e-015 -1.51076e-014
rhumerus -17.2299 57.3915 -76.7828
rradius 58.2722
rwrist -20.2493
rhand 10.6443 -22.5378
rfingers 7.12502
rthumb 35.7372 -48.9185
lclavicle 8.74653e-015 -1.51076e-014
lhumerus -59.8335 -80.8559 146.014
lradius 76.8418
lwrist 15.777
lhand 2.51881 -31.6833
lfingers 7.12502
lthumb 28.0007 -3.75207
rfemur 14.19 -11.7127 13.5926
rtibia -29.253
rfoot 16.0836 -14.7303
rtoes 21.8703
lfemur 28.9504 8.8385 -17.663
ltibia -35.4422
lfoot 8.01935 19.4399
ltoes -12.2468
593
root 0.819039 17.7119 5.51837 0.792726 -28.6078 -4.04294
lowerback 23.3723 2.15552 -5.41462
upperback 7.37819 1.35437 -0.564291
thorax -5.00881 0.572753 2.11971
lowerneck -19.5748 3.49145 5.01801
upperneck 21.429 2.75221 1.95885
head 10.1359 1.89604 0.254852
rclavicle 1.78906e-014 2.70347e-014
rhumerus -17.3931 58.7767 -77.9169
rradius 59.1178
rwrist -20.9067
rhand 10.6353 -21.9166
rfingers 7.12502
rthumb 35.7286 -48.2993
lclavicle 1.78906e-014 2.70347e-014
lhumerus -60.7362 -80.7196 147.164
lradius 76.8344
lwrist 16.1055
lhand 2.45985 -32.058
lfingers 7.12502
lthumb 27.9443 -4.11756
rfemur 13.8234 -11.7302 13.715
rtibia -29.1887
rfoot 15.875 -14.8139
rtoes 21.7694
lfemur 28.5507 8.73303 -17.539
ltibia -35.792
lfoot 8.47564 19.0631
ltoes -12.4556
594
root 0.816244 17.7131 5.48114 1.16387 -27.9263 -4.0897
lowerback 23.9038 2.07828 -5.27315
upperback 7.25691 1.25553 -0.502182
thorax -5.4005 0.536718 2.12478
lowerneck -19.5567 3.46796 4.80121
upperneck 21.1141 2.76324 2.09745
head 10.0129 1.89597 0.336384
rclavicle 6.63941e-014 -1.27222e-014
rhumerus -17.9805 59.9563 -79.4795
rradius 59.8753
rwrist -21.1907
rhand 10.6706 -21.1634
rfingers 7.12502
rthumb 35.7621 -47.538
lclavicle 6.63941e-014 -1.27222e-014
lhumerus -62.7366 -80.4136 149.384
lradius 76.851
lwrist 16.4051
lhand 2.31956 -32.3258
lfingers 7.12502
lthumb 27.8102 -4.36363
rfemur 13.482 -11.8019 13.8037
rtibia -29.198
rfoot 15.7542 -14.9054
rtoes 21.4308
lfemur 28.1171 8.46123 -17.4603
ltibia -36.1574
lfoot 8.96225 18.7433
ltoes -12.6203
595
root 0.810398 17.7147 5.44305 1.59475 -27.2882 -4.19203
lowerback 24.3029 2.0252 -4.97063
upperback 7.16747 1.23152 -0.517873
thorax -5.69289 0.534013 1.93532
lowerneck -19.4945 3.40696 4.82782
upperneck 20.7142 2.70676 2.01917
head 9.85908 1.85753 0.290458
rclavicle -7.95139e-015 1.66979e-014
rhumerus -18.5311 60.9055 -81.1067
rradius 60.5638
rwrist -21.5774
rhand 10.835 -20.8701
rfingers 7.12502
rthumb 35.9179 -47.2067
lclavicle -7.95139e-015 1.66979e-014
lhumerus -65.8368 -80.3138 152.639
lradius 76.8657
lwrist 16.6271
lhand 2.09655 -32.5448
lfingers 7.12502
lthumb 27.5969 -4.54831
rfemur 13.1131 -11.7614 13.9511
rtibia -29.2122
rfoot 15.6318 -14.9948
rtoes 20.9667
lfemur 27.6472 8.28484 -17.3011
ltibia -36.5039
lfoot 9.46484 18.3755
ltoes -13.1123
596
root 0.801878 17.717 5.40397 1.98854 -26.653 -4.314
lowerback 24.6533 1.98832 -4.67659
upperback 7.17532 1.23169 -0.547328
thorax -5.85496 0.537069 1.73027
lowerneck -19.6345 3.35625 4.85797
upperneck 20.3654 2.63411 2.00058
head 9.76041 1.82032 0.267118
rclavicle -4.37326e-015 -1.03368e-014
rhumerus -18.7729 61.8364 -82.4774
rradius 61.2097
rwrist -22.205
rhand 10.9267 -20.6002
rfingers 7.12502
rthumb 36.0047 -46.9156
lclavicle -4.37326e-015 -1.03368e-014
lhumerus -68.9821 -80.4496 155.913
lradius 76.8801
lwrist 16.7438
lhand 1.80834 -32.8181
lfingers 7.12502
lthumb 27.3213 -4.77789
rfemur 12.7963 -11.6695 14.0973
rtibia -29.242
rfoot 15.5236 -15.1109
rtoes 20.5264
lfemur 27.213 8.14415 -17.0986
ltibia -36.8501
lfoot 9.98235 17.9873
ltoes -13.8987
597
root 0.790677 17.7199 5.36643 2.36737 -26.0791 -4.41832
lowerback 24.9139 1.9909 -4.50535
upperback 7.23627 1.26193 -0.557464
thorax -5.91695 0.551424 1.60923
lowerneck -19.923 3.30905 4.83993
upperneck 20.0912 2.55722 2.0319
head 9.71387 1.78475 0.271922
rclavicle -1.51076e-014 5.1684e-014
rhumerus -18.8545 62.8093 -83.6253
rradius 61.873
rwrist -22.8278
rhand 10.7261 -19.9351
rfingers 7.12502
rthumb 35.8147 -46.297
lclavicle -1.51076e-014 5.1684e-014
lhumerus -71.7532 -80.633 158.853
lradius 76.8752
lwrist 16.8559
lhand 1.47938 -33.0531
lfingers 7.12502
lthumb 27.0066 -4.9637
rfemur 12.49 -11.5219 14.218
rtibia -29.2989
rfoot 15.5519 -15.1227
rtoes 19.7906
lfemur 26.7919 8.06737 -16.9013
ltibia -37.1886
lfoot 10.5023 17.5902
ltoes -14.3842
598
root 0.77878 17.7211 5.32387 2.75501 -25.4523 -4.46995
lowerback 25.1806 1.98449 -4.41751
upperback 7.28438 1.26205 -0.554713
thorax -5.99523 0.55209 1.5584
lowerneck -20.1255 3.26771 4.91233
upperneck 19.7105 2.51537 1.87139
head 9.61801 1.74783 0.19743
rclavicle -3.26007e-014 2.46493e-014
rhumerus -18.9343 63.8586 -84.6232
rradius 62.6228
rwrist -23.4814
rhand 10.4494 -19.5097
rfingers 7.12502
rthumb 35.5525 -45.9349
lclavicle -3.26007e-014 2.46493e-014
lhumerus -74.3292 -80.7194 161.616
lradius 76.8844
lwrist 17.0437
lhand 1.35826 -33.0685
lfingers 7.12502
lthumb 26.8907 -4.96122
rfemur 12.164 -11.3473 14.2839
rtibia -29.3829
rfoot 15.5651 -15.1191
rtoes 18.8945
lfemur 26.3072 7.97125 -16.7494
ltibia -37.5189
lfoot 11.0225 17.1754
ltoes -14.8465
